<?xml version="1.0" encoding="UTF-8" standalone="no"?><!-- Generator: Gravit.io --><svg xmlns="http://www.w3.org/2000/svg" xmlns:xlink="http://www.w3.org/1999/xlink" style="isolation:isolate" viewBox="0 0 250 250" width="250pt" height="250pt"><defs><clipPath id="_clipPath_9Agc8tfof4c3s3JFjsgstXb6VT7w67nl"><rect width="250" height="250"/></clipPath></defs><g clip-path="url(#_clipPath_9Agc8tfof4c3s3JFjsgstXb6VT7w67nl)"><g><linearGradient id="_lgradient_0" x1="1.05555555555555" y1="0.5171052631578936" x2="-0.24583333333333712" y2="0.5171052631578937" gradientTransform="matrix(77.971,0,0,246.91,86.478,2.09)" gradientUnits="userSpaceOnUse"><stop offset="0%" stop-opacity="1" style="stop-color:rgb(67,81,187)"/><stop offset="100%" stop-opacity="1" style="stop-color:rgb(23,28,68)"/></linearGradient><path d=" M 164.45 42.144 L 164.45 208.946 C 164.45 231.052 146.981 249 125.464 249 L 125.464 249 C 103.947 249 86.478 231.052 86.478 208.946 L 86.478 42.144 C 86.478 20.038 103.947 2.09 125.464 2.09 L 125.464 2.09 C 146.981 2.09 164.45 20.038 164.45 42.144 Z " fill-rule="evenodd" fill="url(#_lgradient_0)"/><linearGradient id="_lgradient_1" x1="0.7416666666666654" y1="0.7340766026409022" x2="0.011111111111111072" y2="0.7340766026409024" gradientTransform="matrix(233.914,0,0,207.123,8.507,2.09)" gradientUnits="userSpaceOnUse"><stop offset="0%" stop-opacity="1" style="stop-color:rgb(103,119,239)"/><stop offset="100%" stop-opacity="1" style="stop-color:rgb(47,65,198)"/></linearGradient><path d=" M 86.478 80.062 L 47.492 80.062 C 25.976 80.062 8.507 62.593 8.507 41.076 L 8.507 41.076 C 8.507 19.559 25.976 2.09 47.492 2.09 L 47.492 2.09 L 203.435 2.09 C 224.952 2.09 242.421 19.559 242.421 41.076 L 242.421 41.076 C 242.421 62.593 224.952 80.062 203.435 80.062 L 151.454 80.062 C 137.11 80.062 125.464 91.708 125.464 106.052 L 125.464 106.052 L 125.464 106.052 L 125.464 106.052 L 125.464 106.052 C 125.464 120.397 137.11 132.043 151.454 132.043 L 190.44 132.043 L 190.44 132.043 C 204.785 132.043 216.431 143.689 216.431 158.033 L 216.431 158.033 C 216.431 172.378 204.785 184.024 190.44 184.024 L 125.464 184.024 L 125.464 184.044 C 125.032 184.03 124.599 184.024 124.164 184.024 L 124.164 184.024 L 124.164 184.024 L 124.164 184.024 C 106.948 184.024 92.24 194.497 86.478 209.214 L 86.478 184.024 L 86.478 80.062 Z " fill-rule="evenodd" fill="url(#_lgradient_1)"/></g></g></svg>
