<?xml version="1.0" encoding="UTF-8" standalone="no"?><!-- Generator: Gravit.io --><svg xmlns="http://www.w3.org/2000/svg" xmlns:xlink="http://www.w3.org/1999/xlink" style="isolation:isolate" viewBox="0 0 250 50" width="250pt" height="50pt"><defs><clipPath id="_clipPath_f8XuGT9agy6K7AQAJRfdV4vdguSazhVs"><rect width="250" height="50"/></clipPath></defs><g clip-path="url(#_clipPath_f8XuGT9agy6K7AQAJRfdV4vdguSazhVs)"><g><linearGradient id="_lgradient_2" x1="0.8180555555555563" y1="0.5171052631578944" x2="0.3388888888888886" y2="0.5171052631578945" gradientTransform="matrix(46.938,0,0,49.545,0.062,0.34)" gradientUnits="userSpaceOnUse"><stop offset="0%" stop-opacity="1" style="stop-color:rgb(67,81,187)"/><stop offset="100%" stop-opacity="1" style="stop-color:rgb(23,28,68)"/></linearGradient><path d=" M 31.354 15.986 L 39.177 15.986 C 43.495 15.986 47 12.481 47 8.163 L 47 8.163 C 47 3.846 43.495 0.34 39.177 0.34 L 23.531 0.34 L 23.531 0.34 L 7.885 0.34 C 3.568 0.34 0.062 3.846 0.062 8.163 L 0.062 8.163 C 0.062 12.481 3.568 15.986 7.885 15.986 L 15.708 15.986 L 15.708 41.848 C 15.708 46.284 19.214 49.885 23.531 49.885 L 23.531 49.885 C 27.849 49.885 31.354 46.284 31.354 41.848 L 31.354 15.986 Z " fill-rule="evenodd" fill="url(#_lgradient_2)"/><linearGradient id="_lgradient_3" x1="0.7416666666666654" y1="0.7340766026409022" x2="0.011111111111111072" y2="0.7340766026409024" gradientTransform="matrix(46.938,0,0,41.562,0.062,0.34)" gradientUnits="userSpaceOnUse"><stop offset="0%" stop-opacity="1" style="stop-color:rgb(103,119,239)"/><stop offset="100%" stop-opacity="1" style="stop-color:rgb(47,65,198)"/></linearGradient><path d=" M 15.708 15.986 L 7.885 15.986 C 3.568 15.986 0.062 12.481 0.062 8.163 L 0.062 8.163 C 0.062 3.846 3.568 0.34 7.885 0.34 L 7.885 0.34 L 39.177 0.34 C 43.495 0.34 47 3.846 47 8.163 L 47 8.163 C 47 12.481 43.495 15.986 39.177 15.986 L 28.747 15.986 C 25.868 15.986 23.531 18.323 23.531 21.201 L 23.531 21.201 L 23.531 21.201 L 23.531 21.201 L 23.531 21.201 C 23.531 24.08 25.868 26.417 28.747 26.417 L 36.569 26.417 L 36.569 26.417 C 39.448 26.417 41.785 28.754 41.785 31.632 L 41.785 31.632 C 41.785 34.51 39.448 36.847 36.569 36.847 L 23.531 36.847 L 23.531 36.851 C 23.445 36.849 23.358 36.847 23.27 36.847 L 23.27 36.847 L 23.27 36.847 L 23.27 36.847 C 19.816 36.847 16.865 38.949 15.708 41.902 L 15.708 36.847 L 15.708 15.986 Z " fill-rule="evenodd" fill="url(#_lgradient_3)"/></g><path d=" M 77.377 40.03 L 77.377 40.03 Q 79.162 40.183 79.162 41.662 L 79.162 41.662 L 79.162 41.662 Q 79.162 42.529 78.525 42.963 L 78.525 42.963 L 78.525 42.963 Q 77.887 43.396 76.612 43.294 L 76.612 43.294 L 75.235 43.192 L 75.235 43.192 Q 71.155 42.886 69.217 40.744 L 69.217 40.744 L 69.217 40.744 Q 67.279 38.602 67.279 34.267 L 67.279 34.267 L 67.279 21.466 L 63.862 21.466 L 63.862 21.466 Q 62.995 21.466 62.511 21.033 L 62.511 21.033 L 62.511 21.033 Q 62.026 20.599 62.026 19.885 L 62.026 19.885 L 62.026 19.885 Q 62.026 19.12 62.511 18.661 L 62.511 18.661 L 62.511 18.661 Q 62.995 18.202 63.862 18.202 L 63.862 18.202 L 67.279 18.202 L 67.279 12.439 L 67.279 12.439 Q 67.279 11.47 67.84 10.935 L 67.84 10.935 L 67.84 10.935 Q 68.401 10.399 69.37 10.399 L 69.37 10.399 L 69.37 10.399 Q 70.288 10.399 70.849 10.935 L 70.849 10.935 L 70.849 10.935 Q 71.41 11.47 71.41 12.439 L 71.41 12.439 L 71.41 18.202 L 77.071 18.202 L 77.071 18.202 Q 77.887 18.202 78.372 18.661 L 78.372 18.661 L 78.372 18.661 Q 78.856 19.12 78.856 19.885 L 78.856 19.885 L 78.856 19.885 Q 78.856 20.599 78.372 21.033 L 78.372 21.033 L 78.372 21.033 Q 77.887 21.466 77.071 21.466 L 77.071 21.466 L 71.41 21.466 L 71.41 34.471 L 71.41 34.471 Q 71.41 37.276 72.558 38.526 L 72.558 38.526 L 72.558 38.526 Q 73.705 39.775 76 39.928 L 76 39.928 L 77.377 40.03 Z  M 103.469 37.276 L 103.469 37.276 Q 104.03 37.276 104.438 37.735 L 104.438 37.735 L 104.438 37.735 Q 104.846 38.194 104.846 38.908 L 104.846 38.908 L 104.846 38.908 Q 104.846 40.183 103.061 41.254 L 103.061 41.254 L 103.061 41.254 Q 101.225 42.325 99.185 42.861 L 99.185 42.861 L 99.185 42.861 Q 97.145 43.396 95.207 43.396 L 95.207 43.396 L 95.207 43.396 Q 89.444 43.396 86.104 39.979 L 86.104 39.979 L 86.104 39.979 Q 82.763 36.562 82.763 30.544 L 82.763 30.544 L 82.763 30.544 Q 82.763 26.719 84.242 23.787 L 84.242 23.787 L 84.242 23.787 Q 85.721 20.854 88.399 19.222 L 88.399 19.222 L 88.399 19.222 Q 91.076 17.59 94.493 17.59 L 94.493 17.59 L 94.493 17.59 Q 99.338 17.59 102.194 20.752 L 102.194 20.752 L 102.194 20.752 Q 105.05 23.914 105.05 29.32 L 105.05 29.32 L 105.05 29.32 Q 105.05 30.34 104.642 30.799 L 104.642 30.799 L 104.642 30.799 Q 104.234 31.258 103.316 31.258 L 103.316 31.258 L 86.894 31.258 L 86.894 31.258 Q 87.353 40.03 95.207 40.03 L 95.207 40.03 L 95.207 40.03 Q 97.196 40.03 98.624 39.495 L 98.624 39.495 L 98.624 39.495 Q 100.052 38.959 101.684 38.041 L 101.684 38.041 L 101.684 38.041 Q 103.01 37.276 103.469 37.276 L 103.469 37.276 Z  M 94.544 20.803 L 94.544 20.803 Q 91.28 20.803 89.316 22.843 L 89.316 22.843 L 89.316 22.843 Q 87.353 24.883 86.996 28.606 L 86.996 28.606 L 101.429 28.606 L 101.429 28.606 Q 101.327 24.832 99.542 22.818 L 99.542 22.818 L 99.542 22.818 Q 97.757 20.803 94.544 20.803 L 94.544 20.803 Z  M 114.21 43.294 L 114.21 43.294 Q 113.292 43.294 112.706 42.759 L 112.706 42.759 L 112.706 42.759 Q 112.119 42.223 112.119 41.254 L 112.119 41.254 L 112.119 8.869 L 112.119 8.869 Q 112.119 7.9 112.706 7.365 L 112.706 7.365 L 112.706 7.365 Q 113.292 6.829 114.21 6.829 L 114.21 6.829 L 114.21 6.829 Q 115.077 6.829 115.664 7.365 L 115.664 7.365 L 115.664 7.365 Q 116.25 7.9 116.25 8.869 L 116.25 8.869 L 116.25 41.254 L 116.25 41.254 Q 116.25 42.223 115.664 42.759 L 115.664 42.759 L 115.664 42.759 Q 115.077 43.294 114.21 43.294 L 114.21 43.294 Z  M 144.178 37.276 L 144.178 37.276 Q 144.739 37.276 145.147 37.735 L 145.147 37.735 L 145.147 37.735 Q 145.555 38.194 145.555 38.908 L 145.555 38.908 L 145.555 38.908 Q 145.555 40.183 143.77 41.254 L 143.77 41.254 L 143.77 41.254 Q 141.934 42.325 139.894 42.861 L 139.894 42.861 L 139.894 42.861 Q 137.854 43.396 135.916 43.396 L 135.916 43.396 L 135.916 43.396 Q 130.153 43.396 126.813 39.979 L 126.813 39.979 L 126.813 39.979 Q 123.472 36.562 123.472 30.544 L 123.472 30.544 L 123.472 30.544 Q 123.472 26.719 124.951 23.787 L 124.951 23.787 L 124.951 23.787 Q 126.43 20.854 129.108 19.222 L 129.108 19.222 L 129.108 19.222 Q 131.785 17.59 135.202 17.59 L 135.202 17.59 L 135.202 17.59 Q 140.047 17.59 142.903 20.752 L 142.903 20.752 L 142.903 20.752 Q 145.759 23.914 145.759 29.32 L 145.759 29.32 L 145.759 29.32 Q 145.759 30.34 145.351 30.799 L 145.351 30.799 L 145.351 30.799 Q 144.943 31.258 144.025 31.258 L 144.025 31.258 L 127.603 31.258 L 127.603 31.258 Q 128.062 40.03 135.916 40.03 L 135.916 40.03 L 135.916 40.03 Q 137.905 40.03 139.333 39.495 L 139.333 39.495 L 139.333 39.495 Q 140.761 38.959 142.393 38.041 L 142.393 38.041 L 142.393 38.041 Q 143.719 37.276 144.178 37.276 L 144.178 37.276 Z  M 135.253 20.803 L 135.253 20.803 Q 131.989 20.803 130.026 22.843 L 130.026 22.843 L 130.026 22.843 Q 128.062 24.883 127.705 28.606 L 127.705 28.606 L 142.138 28.606 L 142.138 28.606 Q 142.036 24.832 140.251 22.818 L 140.251 22.818 L 140.251 22.818 Q 138.466 20.803 135.253 20.803 L 135.253 20.803 Z  M 163.742 10.348 L 163.742 10.348 Q 161.039 10.552 159.662 12.057 L 159.662 12.057 L 159.662 12.057 Q 158.285 13.561 158.285 16.57 L 158.285 16.57 L 158.285 18.202 L 163.946 18.202 L 163.946 18.202 Q 164.813 18.202 165.272 18.661 L 165.272 18.661 L 165.272 18.661 Q 165.731 19.12 165.731 19.885 L 165.731 19.885 L 165.731 19.885 Q 165.731 20.65 165.272 21.058 L 165.272 21.058 L 165.272 21.058 Q 164.813 21.466 163.946 21.466 L 163.946 21.466 L 158.285 21.466 L 158.285 41.254 L 158.285 41.254 Q 158.285 42.223 157.699 42.759 L 157.699 42.759 L 157.699 42.759 Q 157.112 43.294 156.245 43.294 L 156.245 43.294 L 156.245 43.294 Q 155.327 43.294 154.741 42.759 L 154.741 42.759 L 154.741 42.759 Q 154.154 42.223 154.154 41.254 L 154.154 41.254 L 154.154 21.466 L 150.737 21.466 L 150.737 21.466 Q 149.87 21.466 149.385 21.033 L 149.385 21.033 L 149.385 21.033 Q 148.901 20.599 148.901 19.885 L 148.901 19.885 L 148.901 19.885 Q 148.901 19.12 149.385 18.661 L 149.385 18.661 L 149.385 18.661 Q 149.87 18.202 150.737 18.202 L 150.737 18.202 L 154.154 18.202 L 154.154 17.284 L 154.154 17.284 Q 154.154 12.694 156.449 10.068 L 156.449 10.068 L 156.449 10.068 Q 158.744 7.441 163.028 7.135 L 163.028 7.135 L 164.354 7.033 L 164.354 7.033 Q 165.68 6.931 166.267 7.288 L 166.267 7.288 L 166.267 7.288 Q 166.853 7.645 166.853 8.563 L 166.853 8.563 L 166.853 8.563 Q 166.853 10.042 165.068 10.246 L 165.068 10.246 L 163.742 10.348 Z  M 172.596 43.294 L 172.596 43.294 Q 171.678 43.294 171.092 42.759 L 171.092 42.759 L 171.092 42.759 Q 170.505 42.223 170.505 41.254 L 170.505 41.254 L 170.505 8.869 L 170.505 8.869 Q 170.505 7.9 171.092 7.365 L 171.092 7.365 L 171.092 7.365 Q 171.678 6.829 172.596 6.829 L 172.596 6.829 L 172.596 6.829 Q 173.463 6.829 174.05 7.365 L 174.05 7.365 L 174.05 7.365 Q 174.636 7.9 174.636 8.869 L 174.636 8.869 L 174.636 41.254 L 174.636 41.254 Q 174.636 42.223 174.05 42.759 L 174.05 42.759 L 174.05 42.759 Q 173.463 43.294 172.596 43.294 L 172.596 43.294 Z  M 193.639 43.396 L 193.639 43.396 Q 190.12 43.396 187.443 41.815 L 187.443 41.815 L 187.443 41.815 Q 184.765 40.234 183.312 37.302 L 183.312 37.302 L 183.312 37.302 Q 181.858 34.369 181.858 30.493 L 181.858 30.493 L 181.858 30.493 Q 181.858 26.617 183.312 23.685 L 183.312 23.685 L 183.312 23.685 Q 184.765 20.752 187.443 19.171 L 187.443 19.171 L 187.443 19.171 Q 190.12 17.59 193.639 17.59 L 193.639 17.59 L 193.639 17.59 Q 197.158 17.59 199.861 19.171 L 199.861 19.171 L 199.861 19.171 Q 202.564 20.752 204.018 23.685 L 204.018 23.685 L 204.018 23.685 Q 205.471 26.617 205.471 30.493 L 205.471 30.493 L 205.471 30.493 Q 205.471 34.369 204.018 37.302 L 204.018 37.302 L 204.018 37.302 Q 202.564 40.234 199.861 41.815 L 199.861 41.815 L 199.861 41.815 Q 197.158 43.396 193.639 43.396 L 193.639 43.396 Z  M 193.639 39.979 L 193.639 39.979 Q 197.311 39.979 199.275 37.557 L 199.275 37.557 L 199.275 37.557 Q 201.238 35.134 201.238 30.493 L 201.238 30.493 L 201.238 30.493 Q 201.238 25.954 199.249 23.481 L 199.249 23.481 L 199.249 23.481 Q 197.26 21.007 193.639 21.007 L 193.639 21.007 L 193.639 21.007 Q 190.018 21.007 188.029 23.481 L 188.029 23.481 L 188.029 23.481 Q 186.04 25.954 186.04 30.493 L 186.04 30.493 L 186.04 30.493 Q 186.04 35.083 188.004 37.531 L 188.004 37.531 L 188.004 37.531 Q 189.967 39.979 193.639 39.979 L 193.639 39.979 Z  M 246.302 19.018 L 246.302 19.018 Q 246.812 17.794 247.985 17.794 L 247.985 17.794 L 247.985 17.794 Q 248.75 17.794 249.362 18.304 L 249.362 18.304 L 249.362 18.304 Q 249.974 18.814 249.974 19.579 L 249.974 19.579 L 249.974 19.579 Q 249.974 19.936 249.821 20.344 L 249.821 20.344 L 241.355 41.764 L 241.355 41.764 Q 241.049 42.427 240.463 42.81 L 240.463 42.81 L 240.463 42.81 Q 239.876 43.192 239.162 43.192 L 239.162 43.192 L 239.162 43.192 Q 238.499 43.192 237.913 42.81 L 237.913 42.81 L 237.913 42.81 Q 237.326 42.427 237.02 41.764 L 237.02 41.764 L 229.982 23.863 L 222.995 41.764 L 222.995 41.764 Q 222.74 42.427 222.128 42.81 L 222.128 42.81 L 222.128 42.81 Q 221.516 43.192 220.802 43.192 L 220.802 43.192 L 220.802 43.192 Q 220.139 43.192 219.527 42.81 L 219.527 42.81 L 219.527 42.81 Q 218.915 42.427 218.609 41.764 L 218.609 41.764 L 210.143 20.395 L 210.143 20.395 Q 209.99 19.987 209.99 19.681 L 209.99 19.681 L 209.99 19.681 Q 209.99 18.865 210.679 18.304 L 210.679 18.304 L 210.679 18.304 Q 211.367 17.743 212.183 17.743 L 212.183 17.743 L 212.183 17.743 Q 213.407 17.743 213.917 18.967 L 213.917 18.967 L 220.904 37.786 L 228.095 19.12 L 228.095 19.12 Q 228.401 18.457 228.937 18.1 L 228.937 18.1 L 228.937 18.1 Q 229.472 17.743 230.084 17.743 L 230.084 17.743 L 230.084 17.743 Q 230.747 17.743 231.283 18.1 L 231.283 18.1 L 231.283 18.1 Q 231.818 18.457 232.073 19.12 L 232.073 19.12 L 239.264 37.735 L 246.302 19.018 Z " fill="rgb(33,40,96)"/></g></svg>